<svg xmlns="http://www.w3.org/2000/svg" xmlns:xlink="http://www.w3.org/1999/xlink" width="100" zoomAndPan="magnify" viewBox="0 0 75 74.999997" height="100" preserveAspectRatio="xMidYMid meet" version="1.0"><defs><g/></defs><g fill="#ffffff" fill-opacity="1"><g transform="translate(11.985086, 44.442196)"><g><path d="M 5.703125 0.1875 C 4.804688 0.1875 4.007812 0.078125 3.3125 -0.140625 C 2.625 -0.359375 2.046875 -0.644531 1.578125 -1 C 1.117188 -1.363281 0.765625 -1.757812 0.515625 -2.1875 L 1.921875 -3.890625 L 2.140625 -3.890625 C 2.523438 -3.316406 3.015625 -2.859375 3.609375 -2.515625 C 4.203125 -2.179688 4.898438 -2.015625 5.703125 -2.015625 C 6.378906 -2.015625 6.890625 -2.15625 7.234375 -2.4375 C 7.578125 -2.726562 7.75 -3.125 7.75 -3.625 C 7.75 -3.9375 7.691406 -4.191406 7.578125 -4.390625 C 7.472656 -4.597656 7.289062 -4.773438 7.03125 -4.921875 C 6.769531 -5.066406 6.421875 -5.191406 5.984375 -5.296875 L 4.328125 -5.671875 C 3.179688 -5.941406 2.320312 -6.378906 1.75 -6.984375 C 1.1875 -7.597656 0.90625 -8.394531 0.90625 -9.375 C 0.90625 -10.101562 1.085938 -10.742188 1.453125 -11.296875 C 1.816406 -11.847656 2.34375 -12.273438 3.03125 -12.578125 C 3.726562 -12.878906 4.5625 -13.03125 5.53125 -13.03125 C 6.519531 -13.03125 7.363281 -12.898438 8.0625 -12.640625 C 8.769531 -12.378906 9.367188 -11.976562 9.859375 -11.4375 L 8.609375 -9.71875 L 8.390625 -9.71875 C 8.023438 -10.101562 7.609375 -10.390625 7.140625 -10.578125 C 6.671875 -10.765625 6.132812 -10.859375 5.53125 -10.859375 C 4.832031 -10.859375 4.300781 -10.734375 3.9375 -10.484375 C 3.570312 -10.242188 3.390625 -9.90625 3.390625 -9.46875 C 3.390625 -9.070312 3.515625 -8.75 3.765625 -8.5 C 4.023438 -8.257812 4.46875 -8.078125 5.09375 -7.953125 L 6.78125 -7.59375 C 8.03125 -7.332031 8.9375 -6.882812 9.5 -6.25 C 10.0625 -5.625 10.34375 -4.800781 10.34375 -3.78125 C 10.34375 -2.976562 10.171875 -2.28125 9.828125 -1.6875 C 9.484375 -1.09375 8.960938 -0.628906 8.265625 -0.296875 C 7.566406 0.0234375 6.710938 0.1875 5.703125 0.1875 Z M 5.703125 0.1875 "/></g></g></g><g fill="#ffffff" fill-opacity="1"><g transform="translate(23.01696, 44.442196)"><g><path d="M 5.65625 0.1875 C 4.71875 0.1875 3.882812 -0.00390625 3.15625 -0.390625 C 2.4375 -0.785156 1.875 -1.359375 1.46875 -2.109375 C 1.070312 -2.867188 0.875 -3.78125 0.875 -4.84375 C 0.875 -5.90625 1.070312 -6.8125 1.46875 -7.5625 C 1.875 -8.320312 2.4375 -8.894531 3.15625 -9.28125 C 3.875 -9.675781 4.691406 -9.875 5.609375 -9.875 C 7.648438 -9.875 8.957031 -9.132812 9.53125 -7.65625 L 7.859375 -6.453125 L 7.6875 -6.453125 C 7.488281 -6.910156 7.226562 -7.25 6.90625 -7.46875 C 6.582031 -7.695312 6.148438 -7.8125 5.609375 -7.8125 C 4.898438 -7.8125 4.347656 -7.566406 3.953125 -7.078125 C 3.566406 -6.597656 3.375 -5.851562 3.375 -4.84375 C 3.375 -3.84375 3.570312 -3.097656 3.96875 -2.609375 C 4.375 -2.117188 4.9375 -1.875 5.65625 -1.875 C 6.175781 -1.875 6.617188 -2.015625 6.984375 -2.296875 C 7.359375 -2.585938 7.625 -3 7.78125 -3.53125 L 7.96875 -3.546875 L 9.6875 -2.609375 C 9.445312 -1.785156 8.992188 -1.113281 8.328125 -0.59375 C 7.660156 -0.0703125 6.769531 0.1875 5.65625 0.1875 Z M 5.65625 0.1875 "/></g></g></g><g fill="#ffffff" fill-opacity="1"><g transform="translate(33.003623, 44.442196)"><g><path d="M 1.390625 0 L 1.390625 -9.6875 L 3.765625 -9.6875 L 3.765625 -8.25 L 3.953125 -8.21875 C 4.179688 -8.757812 4.484375 -9.15625 4.859375 -9.40625 C 5.242188 -9.65625 5.710938 -9.78125 6.265625 -9.78125 C 6.804688 -9.78125 7.222656 -9.6875 7.515625 -9.5 L 7.109375 -7.40625 L 6.921875 -7.359375 C 6.765625 -7.429688 6.609375 -7.476562 6.453125 -7.5 C 6.304688 -7.53125 6.128906 -7.546875 5.921875 -7.546875 C 5.242188 -7.546875 4.722656 -7.304688 4.359375 -6.828125 C 4.003906 -6.359375 3.828125 -5.59375 3.828125 -4.53125 L 3.828125 0 Z M 1.390625 0 "/></g></g></g><g fill="#ffffff" fill-opacity="1"><g transform="translate(40.601218, 44.442196)"><g><path d="M 5.640625 0.1875 C 4.679688 0.1875 3.84375 -0.00390625 3.125 -0.390625 C 2.414062 -0.785156 1.863281 -1.359375 1.46875 -2.109375 C 1.070312 -2.867188 0.875 -3.78125 0.875 -4.84375 C 0.875 -5.90625 1.070312 -6.8125 1.46875 -7.5625 C 1.863281 -8.320312 2.414062 -8.894531 3.125 -9.28125 C 3.84375 -9.675781 4.679688 -9.875 5.640625 -9.875 C 6.585938 -9.875 7.421875 -9.675781 8.140625 -9.28125 C 8.859375 -8.894531 9.414062 -8.320312 9.8125 -7.5625 C 10.207031 -6.8125 10.40625 -5.90625 10.40625 -4.84375 C 10.40625 -3.78125 10.207031 -2.867188 9.8125 -2.109375 C 9.414062 -1.359375 8.859375 -0.785156 8.140625 -0.390625 C 7.421875 -0.00390625 6.585938 0.1875 5.640625 0.1875 Z M 5.640625 -1.875 C 7.140625 -1.875 7.890625 -2.863281 7.890625 -4.84375 C 7.890625 -5.863281 7.695312 -6.613281 7.3125 -7.09375 C 6.925781 -7.570312 6.367188 -7.8125 5.640625 -7.8125 C 4.128906 -7.8125 3.375 -6.820312 3.375 -4.84375 C 3.375 -2.863281 4.128906 -1.875 5.640625 -1.875 Z M 5.640625 -1.875 "/></g></g></g><g fill="#ffffff" fill-opacity="1"><g transform="translate(51.86146, 44.442196)"><g><path d="M 4.03125 0.1875 C 3.15625 0.1875 2.488281 -0.046875 2.03125 -0.515625 C 1.570312 -0.992188 1.34375 -1.710938 1.34375 -2.671875 L 1.34375 -13.59375 L 3.765625 -13.59375 L 3.765625 -2.765625 C 3.765625 -2.171875 4.015625 -1.875 4.515625 -1.875 C 4.648438 -1.875 4.796875 -1.898438 4.953125 -1.953125 L 5.078125 -1.921875 L 5.296875 -0.046875 C 5.160156 0.0234375 4.984375 0.0820312 4.765625 0.125 C 4.546875 0.164062 4.300781 0.1875 4.03125 0.1875 Z M 4.03125 0.1875 "/></g></g></g><g fill="#ffffff" fill-opacity="1"><g transform="translate(57.430097, 44.442196)"><g><path d="M 4.03125 0.1875 C 3.15625 0.1875 2.488281 -0.046875 2.03125 -0.515625 C 1.570312 -0.992188 1.34375 -1.710938 1.34375 -2.671875 L 1.34375 -13.59375 L 3.765625 -13.59375 L 3.765625 -2.765625 C 3.765625 -2.171875 4.015625 -1.875 4.515625 -1.875 C 4.648438 -1.875 4.796875 -1.898438 4.953125 -1.953125 L 5.078125 -1.921875 L 5.296875 -0.046875 C 5.160156 0.0234375 4.984375 0.0820312 4.765625 0.125 C 4.546875 0.164062 4.300781 0.1875 4.03125 0.1875 Z M 4.03125 0.1875 "/></g></g></g></svg>